<?xml version="1.0" encoding="utf-8"?>
<!-- Generator: Adobe Illustrator 21.0.0, SVG Export Plug-In . SVG Version: 6.00 Build 0)  -->
<svg version="1.1" id="Слой_1" xmlns="http://www.w3.org/2000/svg" xmlns:xlink="http://www.w3.org/1999/xlink" x="0px" y="0px"
	 width="329.9px" height="104.8px" viewBox="0 0 329.9 104.8" style="enable-background:new 0 0 329.9 104.8;" xml:space="preserve"
	>
<style type="text/css">
	.st0{fill:#1D58A4;}
	.st1{fill:#E20613;}
	.st2{fill:#FFFFFF;}
	.st3{fill:none;}
	.st4{clip-path:url(#SVGID_2_);}
</style>
<g>
	<path class="st0" d="M140.1,29.2c3.4,0,6.4,0.7,8.6,1.8l-1,6.7c-1.6-1.3-4.1-2-7-2c-4.3,0-9.6,2.6-10.5,8.6
		c-1.1,6.7,3.7,7.8,6.8,7.8c1,0,1.7-0.1,2.3-0.3l1.5-9.4l7,0l-2.2,14.3c-2.9,1.3-6.3,1.9-9.3,1.9c-8.2,0-15.2-4.6-13.6-15.1
		C124.3,33.3,132.9,29.3,140.1,29.2z"/>
	<path class="st0" d="M166.1,38.3l-1,6.6c-3.1-0.8-5.8,0.3-7.3,2.4L156,58l-6.8,0l3-19.3l6,0l-0.4,2.6
		C159.4,39.1,162.1,37.9,166.1,38.3z"/>
	<path class="st0" d="M174,58.6c-6.4,0-8.8-5.5-8-10.7c0.8-4.8,4.3-9.8,10.6-9.8c3.4,0,5.5,1.9,6.3,3.7l0.5-3.1l6,0l-3,19.3l-6,0
		l0.4-2.6C179.5,57.1,177.3,58.6,174,58.6z M176.1,52.9c2.1,0,3.7-1.3,4.6-2.6l0.7-4.4c-0.3-1.3-1.5-2.3-3.3-2.3
		c-3.1,0-4.9,2.3-5.3,4.8C172.6,50.5,173.3,52.9,176.1,52.9z"/>
	<path class="st0" d="M205.8,38c4.9,0,7.1,3.8,6.4,8l-1.9,11.9l-6.8,0l1.8-11.3c0.4-2.1-0.6-2.8-2.1-2.8c-1.7,0-3.1,1.1-3.9,1.9
		l-1.9,12.2l-6.8,0l3-19.3l6,0l-0.4,2.2C201.2,38.9,203.7,38,205.8,38z"/>
	<path class="st0" d="M239.5,29.7l-4.4,28.2l-6,0l0.4-2.6c-1.2,1.8-3.4,3.2-6.7,3.2c-6.4,0-8.8-5.5-8-10.7c0.8-4.8,4.4-9.8,10.6-9.8
		c2.6,0,4.6,1.2,5.6,2.7l1.8-11L239.5,29.7z M226.9,43.6c-3.1,0-4.9,2.3-5.3,4.9c-0.3,2,0.4,4.4,3.2,4.4c2.1,0,3.7-1.3,4.6-2.6
		l0.7-4.5C229.8,44.5,228.6,43.6,226.9,43.6z"/>
	<path class="st1" d="M277.8,29.6L275,47.2c-1.4,8.5-7.6,11.2-14.1,11.2c-6,0-12.5-3-11.2-11.5l2.7-17.2l7.4,0l-2.7,17.2
		c-0.6,3.8,1.1,4.9,4.2,4.9c3.3,0,5.8-1.5,6.4-5.3l2.6-16.8L277.8,29.6z"/>
	<path class="st1" d="M292.2,29c3.7,0,7.1,1,9.3,2.4l-1,6.6c-2.4-1.8-5.4-2.5-8.1-2.5c-2.9,0-4.2,0.8-4.3,2
		c-0.2,3.7,14.3,3,12.5,12.8c-1.2,6.4-6.2,8.2-12.2,8.2c-4.2,0-7.9-1-10.6-2.7l1.1-6.8c3,2.3,6.2,3,9.3,3c2.9,0,4.7-0.7,4.8-1.9
		c0.6-4.6-14-3.2-12.4-13.1C281.5,31.5,286.7,29,292.2,29z"/>
	<path class="st1" d="M322.4,57.7l-0.9-4.4l-11.7,0l-2.3,4.4l-7.8,0l15.5-28.2l8,0l6.6,28.2L322.4,57.7z M312.9,47.3l7.2,0l-1.5-7.9
		c-0.2-0.8-0.3-1.7-0.3-3.1c-0.4,1.3-0.8,2.2-1.2,3L312.9,47.3z"/>
</g>
<g>
	<path class="st0" d="M210.6,66.8l-0.3,1.9l-6,0l-2.3,15l-2,0l2.3-15l-5.9,0l0.3-1.9L210.6,66.8z"/>
	<path class="st0" d="M216.3,71.9l-0.3,2c-2.2-0.4-4.2,0.8-5.2,2.7l-1.1,7.2l-1.9,0l1.8-11.6l1.7,0l-0.3,2
		C212,72.6,213.7,71.6,216.3,71.9z"/>
	<path class="st0" d="M221.3,84c-3.4,0-5.5-2.7-4.9-6.2c0.5-3.4,3.4-6,6.6-6c2.3,0,3.6,1.1,4.4,2.3l0.3-2l1.7,0l-1.8,11.6l-1.7,0
		l0.3-2C225.1,83,223.4,84,221.3,84z M221.6,82.2c2.1,0,3.9-1.4,4.8-2.9l0.5-2.9c-0.4-1.5-1.7-2.8-3.7-2.8c-2.3,0-4.4,1.6-4.9,4.3
		C217.8,80.5,219.4,82.2,221.6,82.2z"/>
	<path class="st0" d="M239.1,71.8c2.8,0,4.4,2,4,4.8l-1.1,7.1l-1.9,0l1.1-7c0.3-2.2-0.8-3.1-2.5-3.1c-1.6,0-3.3,1.2-4.3,2.4
		l-1.2,7.7l-1.9,0l1.8-11.6l1.7,0l-0.3,1.8C235.6,72.7,237.2,71.8,239.1,71.8z"/>
	<path class="st0" d="M250.9,71.8c1.6,0,3,0.4,4,1l-0.3,1.8c-0.9-0.6-2.3-1.1-3.8-1.1c-1.4,0-2.8,0.5-3,1.6
		c-0.3,2.4,7.3,1.4,6.6,5.7c-0.4,2.4-2.8,3.2-5.2,3.2c-1.8,0-3.3-0.5-4.3-1.2l0.3-1.9c1.1,0.8,2.6,1.3,4.1,1.3c1.5,0,3-0.3,3.2-1.6
		c0.4-2.4-7.2-1.5-6.6-5.7C246.3,72.6,248.8,71.8,250.9,71.8z"/>
	<path class="st0" d="M264.9,71.7c3.4,0,5.5,2.7,4.9,6.2c-0.5,3.4-3.4,6-6.6,6c-2.3,0-3.6-1.1-4.2-2.3l-1.1,7.4l-1.9,0l2.7-16.9
		l1.7,0l-0.3,2.1C261.1,72.7,262.7,71.7,264.9,71.7z M264.6,73.5c-2.2,0-3.9,1.4-4.8,2.9l-0.5,2.9c0.4,1.5,1.7,2.8,3.8,2.8
		c2.3,0,4.4-1.6,4.9-4.3C268.3,75.2,266.8,73.5,264.6,73.5z"/>
	<path class="st0" d="M277,83.9c-3.1,0-5.9-2.2-5.3-6.2c0.6-3.9,4-6,7.1-6c3.1,0,5.9,2.2,5.3,6.2C283.5,81.8,280.1,83.9,277,83.9z
		 M277.2,82.1c2.4,0,4.6-1.7,5-4.4c0.4-2.6-1.2-4.1-3.5-4.1c-2.4,0-4.6,1.7-5,4.4C273.2,80.6,274.8,82.1,277.2,82.1z"/>
	<path class="st0" d="M294.5,71.7l-0.3,2c-2.2-0.4-4.2,0.8-5.2,2.7l-1.1,7.2l-1.9,0l1.8-11.6l1.7,0l-0.3,2
		C290.3,72.4,292,71.5,294.5,71.7z"/>
	<path class="st0" d="M299.9,67.8l-0.6,4.1l4.7,0l-0.3,1.8l-4.7,0l-1,6.1c-0.3,1.8,0.5,2.3,2,2.2c1,0,1.9-0.3,2.7-0.7l-0.3,1.9
		c-0.9,0.4-2,0.6-3,0.6c-2.2,0-3.8-1.3-3.3-3.8l1-6.3l-2.2,0l0.3-1.8l2.2,0l0.5-3.6L299.9,67.8z"/>
</g>
<g>
	<g>
		<path class="st1" d="M101.3,36.8c8.9,26.9-5.8,55.8-32.6,64.7C41.8,110.3,12.8,95.7,4,68.8c-5-15-2.6-30.8,5.2-43.2
			C15.3,15.8,24.8,8,36.6,4.1C63.5-4.7,92.4,9.9,101.3,36.8z"/>
	</g>
	<g>
		<path class="st2" d="M21.6,93.5c1.3,1,2.7,2,4.2,2.9c4.3-5.1,10.9-9.8,19.4-13.1c12.6-4.9,29.4-6.5,49.4-1.1
			c1.9-2.7,3.5-5.5,4.8-8.5C72.2,67.1,36.3,70.4,21.6,93.5z M30.8,99.1c2.1,1,4.3,1.9,6.6,2.6c9.5-5,23.6-7.8,40.7-4.4
			c3.5-2,6.7-4.4,9.6-7.1C68.2,85.3,45.6,86.8,30.8,99.1z M15,87.6c1,1.1,2.1,2.1,3.2,3.1c6.1-12.2,20.1-24.7,42-28.7
			c14-2.6,28.6-1.1,42.4,2.3c0.7-3.2,1.2-6.4,1.3-9.7c-2.1-0.5-4.2-0.9-6.4-1.2C53.1,45.4,24.3,65.1,15,87.6z M101.3,36.8
			c-0.3-0.8-0.6-1.7-0.9-2.5C55.9,26.4,18.3,48.7,9.1,79.8c0.9,1.4,1.8,2.8,2.8,4.1c9.7-28.8,45.8-47.8,87-40
			c1.4,0.2,2.9,0.4,4.3,0.7C102.8,42,102.1,39.4,101.3,36.8z M95.4,24.6c-2.5-3.8-5.5-7.2-8.8-10.2C47.9,15,13.3,35.1,3.9,68.6
			c0,0.1,0,0.2,0.1,0.2c0.7,2.1,1.5,4.1,2.5,6.1C14.4,45,46.4,20.6,95.4,24.6z M73.2,5.9c-6.4-2.8-13.5-4.3-20.6-4.3
			C30,10,10.7,26.8,1.5,48.9c-0.3,4-0.1,8.2,0.6,12.3C11.7,30.8,41.1,10.3,73.2,5.9z"/>
	</g>
</g>
<g>
	<g>
		<path class="st0" d="M52.8,104.7c-27.6,0-50.5-21.6-52-49.2C0,39.9,6,24.9,17.4,14.3c4.9-4.6,14.3-6.7,21.5-6.7
			c2.8,0,7.7,0.3,9.5,2.5c0.3,0.3,0.4,0.6,0.5,1c0.7-0.1,1.4-0.1,2-0.1c3.9,0,6,1.6,7.1,2.9c1.4,1.6,2,3.9,1.7,6.1
			c-0.1,0.4-0.4,0.7-0.8,0.8c-0.1,0-0.1,0-0.2,0c-0.4,0-0.7-0.2-0.9-0.5c-0.7-1.2-2.5-2-4.8-2c-0.8,0-1.7,0.1-2.6,0.3
			c0.4,0,0.7,0,1.1,0c3,0,5.2,0.9,6,2.4c0.2,0.3,0.2,0.7,0,1c-0.2,0.3-0.5,0.5-0.8,0.5c-13,0.5-13.9,8.5-13.8,11
			c0.1,4.5,2.9,8.6,5.9,8.6c0.7,0,1.4-0.2,2.1-0.7c2.1-1.4,4.3-2,6.4-2c3.8,0,7.3,2.1,10.3,6.2c9.8,13.6,7.9,38.6,2,56.1
			c-0.1,0.3-0.3,0.5-0.6,0.6c-4.3,1.4-8.7,2.2-13.2,2.4C54.8,104.6,53.8,104.7,52.8,104.7C52.8,104.7,52.8,104.7,52.8,104.7z"/>
	</g>
	<g>
		<path class="st3" d="M57,39.7c-1.9,0-4,0.6-6,1.9c-0.9,0.6-1.8,0.8-2.7,0.8c-7.9,0-13.4-21.1,8-21.9c-0.6-1.2-2.7-1.9-5.2-1.9
			c-2,0-4.3,0.4-6.5,1.4c1.6-2.4,5-3.7,8.1-3.7c2.5,0,4.9,0.8,5.8,2.6c0.5-3.3-1.5-7.9-7.9-7.9c-0.9,0-1.9,0.1-2.9,0.3
			C48,9,43.8,7.7,38.3,7.7c-4.2,0-9.1,0.7-13.4,2.2c-3.7,2.5-6.3,5.7-5.7,9.4c1.7,10.7,26.4,50,26.4,50l22.7,29.7c0,0,0.3,0.6,0.9,1
			C79.3,67.6,70.1,39.7,57,39.7z"/>
		<path class="st2" d="M38.3,7.7c5.5,0,9.7,1.3,9.3,3.7c1.1-0.2,2-0.3,2.9-0.3c6.4,0,8.5,4.6,7.9,7.9c-0.9-1.7-3.2-2.6-5.8-2.6
			c-3.1,0-6.6,1.3-8.1,3.7c2.3-1,4.6-1.4,6.5-1.4c2.6,0,4.6,0.7,5.2,1.9c-21.4,0.8-15.9,21.9-8,21.9c0.9,0,1.8-0.3,2.7-0.8
			c2.1-1.3,4.1-1.9,6-1.9c13.1,0,22.3,27.8,12,60.4c0.5,0.3,1.1,0.5,2,0.4c3.4-10.9,4.9-22,4.3-32.2c-0.6-9.8-3.1-18.3-7.1-23.8
			c-3.2-4.4-7-6.7-11.2-6.7c-2.4,0-4.8,0.7-7.1,2.2c-0.5,0.3-1.1,0.5-1.6,0.5c-2.5,0-4.9-3.8-5-7.7c-0.1-6,4.8-9.8,13.1-10.2
			c0.7,0,1.3-0.4,1.7-1c0.1-0.2,0.2-0.4,0.2-0.6c0.1,0,0.1,0,0.2,0c0.1,0,0.2,0,0.3,0c0.8-0.1,1.5-0.8,1.7-1.7
			c0.4-2.5-0.3-5.1-1.9-7c-1.3-1.5-3.7-3.3-8-3.3c-0.5,0-0.9,0-1.4,0.1c-0.1-0.2-0.3-0.4-0.4-0.6c-2-2.4-6.8-2.9-10.4-2.9
			c-2,0-4.1,0.2-6.3,0.5c-2.4,1-4.9,2.3-7.1,3.7C29.1,8.4,34.1,7.7,38.3,7.7z"/>
	</g>
</g>
<g>
	<defs>
		<path id="SVGID_1_" d="M0.6,55.7c1.6,28.6,26.1,50.6,54.7,49c4.6-0.3,9-1.1,13.1-2.4C81.3,64.2,67.1,32,51,42.3
			c-9.1,5.8-18.4-20.1,5.3-21c-1.1-2.1-6.6-2.7-11.8-0.5c2.8-4.4,11.9-5,13.9-1.1c0.6-3.8-2.2-9.2-10.9-7.6c1-5.5-21.9-5.1-30.4,2.8
			C6.2,25-0.2,39.7,0.6,55.7z"/>
	</defs>
	<clipPath id="SVGID_2_">
		<use xlink:href="#SVGID_1_"  style="overflow:visible;"/>
	</clipPath>
	<g class="st4">
		<g>
			<g>
				<path class="st2" d="M37.2,22.3c-1.7,0.6-2.6,0.9-4.3,1.5c-1.6-1-2.4-1.5-4-2.5c0.5,1.4,0.8,2.1,1.3,3.5
					c-1.7,0.6-2.6,0.9-4.3,1.5c2,0.2,3.1,0.4,5.1,0.6c0.5,1.4,0.7,2.1,1.1,3.5c0.8-1.3,1.2-1.9,1.9-3.1c2,0.3,2.9,0.4,4.9,0.8
					c-1.5-1.1-2.2-1.6-3.7-2.7C36.1,24.2,36.5,23.5,37.2,22.3L37.2,22.3z"/>
			</g>
		</g>
		<g>
			<g>
				<path class="st2" d="M72.5,57.8c-1.5,0.5-2.3,0.7-3.8,1.2c-1-1.4-1.5-2.2-2.6-3.6c0.1,1.7,0.1,2.6,0.2,4.3
					c-1.5,0.5-2.3,0.7-3.9,1.2c1.6,0.6,2.4,0.9,3.9,1.4c0,1.7,0,2.6,0.1,4.4c0.9-1.4,1.4-2.1,2.3-3.4c1.5,0.6,2.3,0.9,3.8,1.6
					c-0.9-1.5-1.4-2.2-2.4-3.7C71.1,59.9,71.6,59.2,72.5,57.8L72.5,57.8z"/>
			</g>
		</g>
		<g>
			<g>
				<path class="st2" d="M21.7,33.9c-1.7,0.6-2.6,0.9-4.3,1.5c-1.6-1-2.3-1.5-4-2.5c0.5,1.4,0.8,2.1,1.3,3.5
					c-1.7,0.6-2.6,0.9-4.3,1.5c2,0.2,3.1,0.4,5.1,0.6c0.5,1.4,0.7,2.1,1.1,3.5c0.8-1.3,1.2-1.9,1.9-3.1c2,0.3,2.9,0.5,4.9,0.8
					c-1.5-1.1-2.2-1.6-3.7-2.7C20.5,35.8,20.9,35.2,21.7,33.9L21.7,33.9z"/>
			</g>
		</g>
		<g>
			<g>
				<path class="st2" d="M41.3,50.3c-1.6,0.5-2.4,0.8-4,1.3c-1.3-1.3-1.9-1.9-3.2-3.1c0.3,1.5,0.4,2.3,0.7,3.9
					c-1.6,0.5-2.4,0.8-4.1,1.3c1.8,0.4,2.7,0.6,4.4,1.1c0.2,1.6,0.4,2.4,0.6,4c0.9-1.3,1.3-2,2.1-3.3c1.7,0.5,2.6,0.7,4.3,1.2
					c-1.2-1.3-1.8-1.9-3-3.2C40,52.2,40.4,51.6,41.3,50.3L41.3,50.3z"/>
			</g>
		</g>
		<g>
			<g>
				<path class="st2" d="M57,69.5c-1.5,0.5-2.3,0.7-3.8,1.2c-1-1.4-1.5-2.2-2.6-3.6c0.1,1.7,0.1,2.6,0.2,4.3
					c-1.5,0.5-2.3,0.7-3.9,1.2c1.6,0.6,2.4,0.9,4,1.5c0,1.7,0,2.6,0.1,4.4c0.9-1.4,1.4-2.1,2.3-3.4c1.5,0.6,2.3,0.9,3.8,1.6
					c-0.9-1.5-1.4-2.2-2.4-3.7C55.6,71.5,56.1,70.8,57,69.5L57,69.5z"/>
			</g>
		</g>
		<g>
			<g>
				<path class="st2" d="M69.6,91c-1.5,0.4-2.2,0.7-3.7,1.1c-0.8-1.6-1.2-2.4-2.1-4c-0.1,1.9-0.1,2.8-0.2,4.6
					c-1.5,0.4-2.2,0.6-3.7,1.1c1.4,0.7,2.1,1,3.5,1.8c-0.1,1.9-0.2,2.8-0.3,4.7c1-1.4,1.5-2.1,2.5-3.6c1.4,0.7,2.1,1.1,3.4,1.9
					c-0.8-1.6-1.1-2.4-1.9-4C68.1,93.1,68.6,92.4,69.6,91L69.6,91z"/>
			</g>
		</g>
		<g>
			<g>
				<path class="st2" d="M25.7,61.9c-1.6,0.5-2.4,0.8-4,1.4c-1.3-1.3-1.9-1.9-3.2-3.1c0.3,1.6,0.4,2.4,0.7,3.9
					c-1.6,0.5-2.4,0.8-4,1.3c1.8,0.4,2.7,0.6,4.4,1.1c0.2,1.6,0.4,2.4,0.6,4c0.9-1.3,1.3-2,2.1-3.3c1.7,0.5,2.6,0.7,4.3,1.2
					c-1.2-1.3-1.8-2-3-3.2C24.4,63.9,24.9,63.2,25.7,61.9L25.7,61.9z"/>
			</g>
		</g>
		<g>
			<g>
				<path class="st2" d="M41.4,81.1c-1.5,0.5-2.3,0.7-3.8,1.2c-1-1.4-1.5-2.2-2.6-3.6c0.1,1.7,0.1,2.6,0.2,4.3
					c-1.5,0.5-2.3,0.7-3.8,1.2c1.6,0.6,2.4,0.9,3.9,1.5c0,1.7,0,2.6,0.1,4.3c0.9-1.4,1.4-2.1,2.3-3.4c1.5,0.6,2.3,0.9,3.8,1.6
					c-0.9-1.5-1.4-2.2-2.4-3.7C40.1,83.2,40.5,82.5,41.4,81.1L41.4,81.1z"/>
			</g>
		</g>
		<g>
			<g>
				<path class="st2" d="M26.2,77c-1.6,0.5-2.3,0.7-3.9,1.3c-1.1-1.4-1.7-2-2.8-3.3c0.2,1.6,0.3,2.5,0.4,4.1
					c-1.6,0.5-2.3,0.8-3.9,1.3c1.7,0.5,2.5,0.8,4.2,1.3c0.1,1.7,0.2,2.5,0.3,4.2c0.9-1.3,1.3-2,2.3-3.4c1.6,0.6,2.4,0.8,4,1.4
					c-1.1-1.4-1.6-2.1-2.7-3.4C24.8,79,25.3,78.4,26.2,77L26.2,77z"/>
			</g>
		</g>
		<g>
			<g>
				<path class="st2" d="M24.2,47.5c-1.6,0.6-2.5,0.9-4.1,1.4c-1.4-1.1-2.1-1.7-3.6-2.8c0.4,1.5,0.6,2.2,1,3.7
					c-1.7,0.6-2.5,0.8-4.2,1.4c1.9,0.3,2.9,0.5,4.7,0.9c0.3,1.5,0.5,2.2,0.8,3.8c0.8-1.3,1.2-1.9,2.1-3.2c1.9,0.4,2.8,0.6,4.6,1
					c-1.3-1.2-2-1.8-3.3-2.9C23,49.5,23.4,48.8,24.2,47.5L24.2,47.5z"/>
			</g>
		</g>
		<g>
			<g>
				<path class="st2" d="M41.8,65.4c-1.6,0.5-2.4,0.8-3.9,1.3c-1.1-1.3-1.7-2-2.9-3.3c0.2,1.6,0.3,2.5,0.4,4.1
					c-1.6,0.5-2.3,0.7-3.9,1.3c1.7,0.5,2.5,0.8,4.2,1.3c0.1,1.7,0.2,2.5,0.3,4.2c0.9-1.4,1.3-2,2.3-3.4c1.6,0.5,2.4,0.8,4,1.4
					c-1-1.4-1.6-2.1-2.7-3.4C40.4,67.4,40.9,66.7,41.8,65.4L41.8,65.4z"/>
			</g>
		</g>
		<g>
			<g>
				<path class="st2" d="M55.8,85.8c-1.5,0.5-2.2,0.7-3.8,1.1c-0.9-1.5-1.3-2.2-2.3-3.7c0,1.8,0,2.7,0,4.5c-1.5,0.5-2.3,0.7-3.8,1.1
					c1.5,0.6,2.2,1,3.7,1.6c-0.1,1.8-0.1,2.7-0.2,4.5c1-1.4,1.4-2.1,2.4-3.5c1.4,0.7,2.2,1,3.6,1.7c-0.8-1.6-1.3-2.3-2.1-3.9
					C54.4,87.9,54.9,87.2,55.8,85.8L55.8,85.8z"/>
			</g>
		</g>
		<g>
			<g>
				<path class="st2" d="M39.8,35.9c-1.7,0.6-2.5,0.9-4.1,1.4c-1.4-1.1-2.1-1.7-3.6-2.8c0.4,1.5,0.6,2.2,1,3.7
					c-1.7,0.6-2.5,0.8-4.2,1.4c1.9,0.3,2.9,0.5,4.7,0.8c0.4,1.5,0.5,2.3,0.8,3.8c0.8-1.3,1.3-1.9,2.1-3.2c1.9,0.4,2.8,0.6,4.6,1
					c-1.3-1.2-2-1.8-3.4-3C38.6,37.8,39,37.1,39.8,35.9L39.8,35.9z"/>
			</g>
		</g>
		<g>
			<g>
				<path class="st2" d="M57.4,53.7c-1.6,0.5-2.4,0.7-3.9,1.3c-1.1-1.4-1.7-2-2.9-3.3c0.2,1.6,0.3,2.5,0.4,4.1
					c-1.6,0.5-2.4,0.8-3.9,1.3c1.7,0.5,2.5,0.8,4.2,1.3c0.1,1.7,0.2,2.5,0.3,4.2c0.9-1.4,1.4-2,2.2-3.4c1.6,0.5,2.4,0.8,4,1.4
					c-1.1-1.4-1.6-2.1-2.7-3.4C56,55.7,56.5,55,57.4,53.7L57.4,53.7z"/>
			</g>
		</g>
		<g>
			<g>
				<path class="st2" d="M71.4,74.2c-1.5,0.4-2.3,0.7-3.8,1.1c-0.9-1.5-1.4-2.2-2.3-3.7c0,1.8,0,2.7-0.1,4.5
					c-1.5,0.4-2.3,0.7-3.8,1.1c1.5,0.6,2.2,1,3.7,1.6c0,1.8-0.1,2.7-0.1,4.5c1-1.4,1.5-2.1,2.4-3.5c1.5,0.7,2.2,1,3.6,1.7
					c-0.8-1.6-1.3-2.3-2.1-3.9C70,76.2,70.5,75.6,71.4,74.2L71.4,74.2z"/>
			</g>
		</g>
	</g>
</g>
<g>
	<path class="st2" d="M52.4,104.8C23.5,104.8,0,81.3,0,52.4C0,23.5,23.5,0,52.4,0c28.9,0,52.4,23.5,52.4,52.4
		C104.8,81.3,81.3,104.8,52.4,104.8z M52.4,2C24.6,2,2,24.6,2,52.4s22.6,50.4,50.4,50.4c27.8,0,50.4-22.6,50.4-50.4S80.2,2,52.4,2z"
		/>
</g>
</svg>
