<?xml version="1.0" encoding="utf-8"?>
<!-- Generator: Adobe Illustrator 19.0.0, SVG Export Plug-In . SVG Version: 6.00 Build 0)  -->
<svg version="1.1" id="Слой_1" xmlns="http://www.w3.org/2000/svg" xmlns:xlink="http://www.w3.org/1999/xlink" x="0px" y="0px"
	 viewBox="-140 344.2 329.9 104.8" style="enable-background:new -140 344.2 329.9 104.8;" xml:space="preserve">
<style type="text/css">
	.st0{fill:#FFFFFF;}
	.st1{fill:#E20613;}
	.st2{fill:#1D58A4;}
	.st3{fill:none;}
	.st4{clip-path:url(#SVGID_2_);}
</style>
<g>
	<path class="st0" d="M0.1,373.4c3.4,0,6.4,0.7,8.6,1.8l-1,6.7c-1.6-1.3-4.1-2-7-2c-4.3,0-9.6,2.6-10.5,8.6
		c-1.1,6.7,3.7,7.8,6.8,7.8c1,0,1.7-0.1,2.3-0.3l1.5-9.4h7l-2.2,14.3c-2.9,1.3-6.3,1.9-9.3,1.9c-8.2,0-15.2-4.6-13.6-15.1
		C-15.7,377.5-7.1,373.5,0.1,373.4z"/>
	<path class="st0" d="M26.1,382.5l-1,6.6c-3.1-0.8-5.8,0.3-7.3,2.4L16,402.2H9.2l3-19.3h6l-0.4,2.6
		C19.4,383.3,22.1,382.1,26.1,382.5z"/>
	<path class="st0" d="M34,402.8c-6.4,0-8.8-5.5-8-10.7c0.8-4.8,4.3-9.8,10.6-9.8c3.4,0,5.5,1.9,6.3,3.7l0.5-3.1h6l-3,19.3h-6
		l0.4-2.6C39.5,401.3,37.3,402.8,34,402.8z M36.1,397.1c2.1,0,3.7-1.3,4.6-2.6l0.7-4.4c-0.3-1.3-1.5-2.3-3.3-2.3
		c-3.1,0-4.9,2.3-5.3,4.8C32.6,394.7,33.3,397.1,36.1,397.1z"/>
	<path class="st0" d="M65.8,382.2c4.9,0,7.1,3.8,6.4,8l-1.9,11.9h-6.8l1.8-11.3c0.4-2.1-0.6-2.8-2.1-2.8c-1.7,0-3.1,1.1-3.9,1.9
		l-1.9,12.2h-6.8l3-19.3h6l-0.4,2.2C61.2,383.1,63.7,382.2,65.8,382.2z"/>
	<path class="st0" d="M99.5,373.9l-4.4,28.2h-6l0.4-2.6c-1.2,1.8-3.4,3.2-6.7,3.2c-6.4,0-8.8-5.5-8-10.7c0.8-4.8,4.4-9.8,10.6-9.8
		c2.6,0,4.6,1.2,5.6,2.7l1.8-11H99.5z M86.9,387.8c-3.1,0-4.9,2.3-5.3,4.9c-0.3,2,0.4,4.4,3.2,4.4c2.1,0,3.7-1.3,4.6-2.6l0.7-4.5
		C89.8,388.7,88.6,387.8,86.9,387.8z"/>
	<path class="st0" d="M137.8,373.8l-2.8,17.6c-1.4,8.5-7.6,11.2-14.1,11.2c-6,0-12.5-3-11.2-11.5l2.7-17.2h7.4l-2.7,17.2
		c-0.6,3.8,1.1,4.9,4.2,4.9c3.3,0,5.8-1.5,6.4-5.3l2.6-16.8L137.8,373.8z"/>
	<path class="st0" d="M152.2,373.2c3.7,0,7.1,1,9.3,2.4l-1,6.6c-2.4-1.8-5.4-2.5-8.1-2.5c-2.9,0-4.2,0.8-4.3,2
		c-0.2,3.7,14.3,3,12.5,12.8c-1.2,6.4-6.2,8.2-12.2,8.2c-4.2,0-7.9-1-10.6-2.7l1.1-6.8c3,2.3,6.2,3,9.3,3c2.9,0,4.7-0.7,4.8-1.9
		c0.6-4.6-14-3.2-12.4-13.1C141.5,375.7,146.7,373.2,152.2,373.2z"/>
	<path class="st0" d="M182.4,401.9l-0.9-4.4h-11.7l-2.3,4.4h-7.8l15.5-28.2h8l6.6,28.2H182.4z M172.9,391.5h7.2l-1.5-7.9
		c-0.2-0.8-0.3-1.7-0.3-3.1c-0.4,1.3-0.8,2.2-1.2,3L172.9,391.5z"/>
</g>
<g>
	<path class="st0" d="M70.6,411l-0.3,1.9h-6l-2.3,15h-2l2.3-15h-5.9l0.3-1.9H70.6z"/>
	<path class="st0" d="M76.3,416.1l-0.3,2c-2.2-0.4-4.2,0.8-5.2,2.7l-1.1,7.2h-1.9l1.8-11.6h1.7l-0.3,2
		C72,416.8,73.7,415.8,76.3,416.1z"/>
	<path class="st0" d="M81.3,428.2c-3.4,0-5.5-2.7-4.9-6.2c0.5-3.4,3.4-6,6.6-6c2.3,0,3.6,1.1,4.4,2.3l0.3-2h1.7l-1.8,11.6h-1.7
		l0.3-2C85.1,427.2,83.4,428.2,81.3,428.2z M81.6,426.4c2.1,0,3.9-1.4,4.8-2.9l0.5-2.9c-0.4-1.5-1.7-2.8-3.7-2.8
		c-2.3,0-4.4,1.6-4.9,4.3C77.8,424.7,79.4,426.4,81.6,426.4z"/>
	<path class="st0" d="M99.1,416c2.8,0,4.4,2,4,4.8l-1.1,7.1h-1.9l1.1-7c0.3-2.2-0.8-3.1-2.5-3.1c-1.6,0-3.3,1.2-4.3,2.4l-1.2,7.7
		h-1.9l1.8-11.6h1.7l-0.3,1.8C95.6,416.9,97.2,416,99.1,416z"/>
	<path class="st0" d="M110.9,416c1.6,0,3,0.4,4,1l-0.3,1.8c-0.9-0.6-2.3-1.1-3.8-1.1c-1.4,0-2.8,0.5-3,1.6c-0.3,2.4,7.3,1.4,6.6,5.7
		c-0.4,2.4-2.8,3.2-5.2,3.2c-1.8,0-3.3-0.5-4.3-1.2l0.3-1.9c1.1,0.8,2.6,1.3,4.1,1.3s3-0.3,3.2-1.6c0.4-2.4-7.2-1.5-6.6-5.7
		C106.3,416.8,108.8,416,110.9,416z"/>
	<path class="st0" d="M124.9,415.9c3.4,0,5.5,2.7,4.9,6.2c-0.5,3.4-3.4,6-6.6,6c-2.3,0-3.6-1.1-4.2-2.3l-1.1,7.4H116l2.7-16.9h1.7
		l-0.3,2.1C121.1,416.9,122.7,415.9,124.9,415.9z M124.6,417.7c-2.2,0-3.9,1.4-4.8,2.9l-0.5,2.9c0.4,1.5,1.7,2.8,3.8,2.8
		c2.3,0,4.4-1.6,4.9-4.3C128.3,419.4,126.8,417.7,124.6,417.7z"/>
	<path class="st0" d="M137,428.1c-3.1,0-5.9-2.2-5.3-6.2c0.6-3.9,4-6,7.1-6s5.9,2.2,5.3,6.2C143.5,426,140.1,428.1,137,428.1z
		 M137.2,426.3c2.4,0,4.6-1.7,5-4.4c0.4-2.6-1.2-4.1-3.5-4.1c-2.4,0-4.6,1.7-5,4.4C133.2,424.8,134.8,426.3,137.2,426.3z"/>
	<path class="st0" d="M154.5,415.9l-0.3,2c-2.2-0.4-4.2,0.8-5.2,2.7l-1.1,7.2H146l1.8-11.6h1.7l-0.3,2
		C150.3,416.6,152,415.7,154.5,415.9z"/>
	<path class="st0" d="M159.9,412l-0.6,4.1h4.7l-0.3,1.8H159l-1,6.1c-0.3,1.8,0.5,2.3,2,2.2c1,0,1.9-0.3,2.7-0.7l-0.3,1.9
		c-0.9,0.4-2,0.6-3,0.6c-2.2,0-3.8-1.3-3.3-3.8l1-6.3h-2.2l0.3-1.8h2.2l0.5-3.6L159.9,412z"/>
</g>
<g>
	<g>
		<path class="st1" d="M-38.7,381c8.9,26.9-5.8,55.8-32.6,64.7c-26.9,8.8-55.9-5.8-64.7-32.7c-5-15-2.6-30.8,5.2-43.2
			c6.1-9.8,15.6-17.6,27.4-21.5C-76.5,339.5-47.6,354.1-38.7,381z"/>
	</g>
	<g>
		<path class="st0" d="M-118.4,437.7c1.3,1,2.7,2,4.2,2.9c4.3-5.1,10.9-9.8,19.4-13.1c12.6-4.9,29.4-6.5,49.4-1.1
			c1.9-2.7,3.5-5.5,4.8-8.5C-67.8,411.3-103.7,414.6-118.4,437.7z M-109.2,443.3c2.1,1,4.3,1.9,6.6,2.6c9.5-5,23.6-7.8,40.7-4.4
			c3.5-2,6.7-4.4,9.6-7.1C-71.8,429.5-94.4,431-109.2,443.3z M-125,431.8c1,1.1,2.1,2.1,3.2,3.1c6.1-12.2,20.1-24.7,42-28.7
			c14-2.6,28.6-1.1,42.4,2.3c0.7-3.2,1.2-6.4,1.3-9.7c-2.1-0.5-4.2-0.9-6.4-1.2C-86.9,389.6-115.7,409.3-125,431.8z M-38.7,381
			c-0.3-0.8-0.6-1.7-0.9-2.5c-44.5-7.9-82.1,14.4-91.3,45.5c0.9,1.4,1.8,2.8,2.8,4.1c9.7-28.8,45.8-47.8,87-40
			c1.4,0.2,2.9,0.4,4.3,0.7C-37.2,386.2-37.9,383.6-38.7,381z M-44.6,368.8c-2.5-3.8-5.5-7.2-8.8-10.2
			c-38.7,0.6-73.3,20.7-82.7,54.2c0,0.1,0,0.2,0.1,0.2c0.7,2.1,1.5,4.1,2.5,6.1C-125.6,389.2-93.6,364.8-44.6,368.8z M-66.8,350.1
			c-6.4-2.8-13.5-4.3-20.6-4.3c-22.6,8.4-41.9,25.2-51.1,47.3c-0.3,4-0.1,8.2,0.6,12.3C-128.3,375-98.9,354.5-66.8,350.1z"/>
	</g>
</g>
<g>
	<g>
		<path class="st2" d="M-87.2,448.9c-27.6,0-50.5-21.6-52-49.2c-0.8-15.6,5.2-30.6,16.6-41.2c4.9-4.6,14.3-6.7,21.5-6.7
			c2.8,0,7.7,0.3,9.5,2.5c0.3,0.3,0.4,0.6,0.5,1c0.7-0.1,1.4-0.1,2-0.1c3.9,0,6,1.6,7.1,2.9c1.4,1.6,2,3.9,1.7,6.1
			c-0.1,0.4-0.4,0.7-0.8,0.8c-0.1,0-0.1,0-0.2,0c-0.4,0-0.7-0.2-0.9-0.5c-0.7-1.2-2.5-2-4.8-2c-0.8,0-1.7,0.1-2.6,0.3
			c0.4,0,0.7,0,1.1,0c3,0,5.2,0.9,6,2.4c0.2,0.3,0.2,0.7,0,1s-0.5,0.5-0.8,0.5c-13,0.5-13.9,8.5-13.8,11c0.1,4.5,2.9,8.6,5.9,8.6
			c0.7,0,1.4-0.2,2.1-0.7c2.1-1.4,4.3-2,6.4-2c3.8,0,7.3,2.1,10.3,6.2c9.8,13.6,7.9,38.6,2,56.1c-0.1,0.3-0.3,0.5-0.6,0.6
			c-4.3,1.4-8.7,2.2-13.2,2.4C-85.2,448.8-86.2,448.9-87.2,448.9L-87.2,448.9z"/>
	</g>
	<g>
		<path class="st3" d="M-83,383.9c-1.9,0-4,0.6-6,1.9c-0.9,0.6-1.8,0.8-2.7,0.8c-7.9,0-13.4-21.1,8-21.9c-0.6-1.2-2.7-1.9-5.2-1.9
			c-2,0-4.3,0.4-6.5,1.4c1.6-2.4,5-3.7,8.1-3.7c2.5,0,4.9,0.8,5.8,2.6c0.5-3.3-1.5-7.9-7.9-7.9c-0.9,0-1.9,0.1-2.9,0.3
			c0.3-2.3-3.9-3.6-9.4-3.6c-4.2,0-9.1,0.7-13.4,2.2c-3.7,2.5-6.3,5.7-5.7,9.4c1.7,10.7,26.4,50,26.4,50l22.7,29.7
			c0,0,0.3,0.6,0.9,1C-60.7,411.8-69.9,383.9-83,383.9z"/>
		<path class="st0" d="M-101.7,351.9c5.5,0,9.7,1.3,9.3,3.7c1.1-0.2,2-0.3,2.9-0.3c6.4,0,8.5,4.6,7.9,7.9c-0.9-1.7-3.2-2.6-5.8-2.6
			c-3.1,0-6.6,1.3-8.1,3.7c2.3-1,4.6-1.4,6.5-1.4c2.6,0,4.6,0.7,5.2,1.9c-21.4,0.8-15.9,21.9-8,21.9c0.9,0,1.8-0.3,2.7-0.8
			c2.1-1.3,4.1-1.9,6-1.9c13.1,0,22.3,27.8,12,60.4c0.5,0.3,1.1,0.5,2,0.4c3.4-10.9,4.9-22,4.3-32.2c-0.6-9.8-3.1-18.3-7.1-23.8
			c-3.2-4.4-7-6.7-11.2-6.7c-2.4,0-4.8,0.7-7.1,2.2c-0.5,0.3-1.1,0.5-1.6,0.5c-2.5,0-4.9-3.8-5-7.7c-0.1-6,4.8-9.8,13.1-10.2
			c0.7,0,1.3-0.4,1.7-1c0.1-0.2,0.2-0.4,0.2-0.6c0.1,0,0.1,0,0.2,0c0.1,0,0.2,0,0.3,0c0.8-0.1,1.5-0.8,1.7-1.7
			c0.4-2.5-0.3-5.1-1.9-7c-1.3-1.5-3.7-3.3-8-3.3c-0.5,0-0.9,0-1.4,0.1c-0.1-0.2-0.3-0.4-0.4-0.6c-2-2.4-6.8-2.9-10.4-2.9
			c-2,0-4.1,0.2-6.3,0.5c-2.4,1-4.9,2.3-7.1,3.7C-110.9,352.6-105.9,351.9-101.7,351.9z"/>
	</g>
</g>
<g>
	<g>
		<defs>
			<path id="SVGID_1_" d="M-139.4,399.9c1.6,28.6,26.1,50.6,54.7,49c4.6-0.3,9-1.1,13.1-2.4c12.9-38.1-1.3-70.3-17.4-60
				c-9.1,5.8-18.4-20.1,5.3-21c-1.1-2.1-6.6-2.7-11.8-0.5c2.8-4.4,11.9-5,13.9-1.1c0.6-3.8-2.2-9.2-10.9-7.6
				c1-5.5-21.9-5.1-30.4,2.8C-133.8,369.2-140.2,383.9-139.4,399.9z"/>
		</defs>
		<clipPath id="SVGID_2_">
			<use xlink:href="#SVGID_1_"  style="overflow:visible;"/>
		</clipPath>
		<g class="st4">
			<g>
				<g>
					<path class="st0" d="M-102.8,366.5c-1.7,0.6-2.6,0.9-4.3,1.5c-1.6-1-2.4-1.5-4-2.5c0.5,1.4,0.8,2.1,1.3,3.5
						c-1.7,0.6-2.6,0.9-4.3,1.5c2,0.2,3.1,0.4,5.1,0.6c0.5,1.4,0.7,2.1,1.1,3.5c0.8-1.3,1.2-1.9,1.9-3.1c2,0.3,2.9,0.4,4.9,0.8
						c-1.5-1.1-2.2-1.6-3.7-2.7C-103.9,368.4-103.5,367.7-102.8,366.5L-102.8,366.5z"/>
				</g>
			</g>
			<g>
				<g>
					<path class="st0" d="M-67.5,402c-1.5,0.5-2.3,0.7-3.8,1.2c-1-1.4-1.5-2.2-2.6-3.6c0.1,1.7,0.1,2.6,0.2,4.3
						c-1.5,0.5-2.3,0.7-3.9,1.2c1.6,0.6,2.4,0.9,3.9,1.4c0,1.7,0,2.6,0.1,4.4c0.9-1.4,1.4-2.1,2.3-3.4c1.5,0.6,2.3,0.9,3.8,1.6
						c-0.9-1.5-1.4-2.2-2.4-3.7C-68.9,404.1-68.4,403.4-67.5,402L-67.5,402z"/>
				</g>
			</g>
			<g>
				<g>
					<path class="st0" d="M-118.3,378.1c-1.7,0.6-2.6,0.9-4.3,1.5c-1.6-1-2.3-1.5-4-2.5c0.5,1.4,0.8,2.1,1.3,3.5
						c-1.7,0.6-2.6,0.9-4.3,1.5c2,0.2,3.1,0.4,5.1,0.6c0.5,1.4,0.7,2.1,1.1,3.5c0.8-1.3,1.2-1.9,1.9-3.1c2,0.3,2.9,0.5,4.9,0.8
						c-1.5-1.1-2.2-1.6-3.7-2.7C-119.5,380-119.1,379.4-118.3,378.1L-118.3,378.1z"/>
				</g>
			</g>
			<g>
				<g>
					<path class="st0" d="M-98.7,394.5c-1.6,0.5-2.4,0.8-4,1.3c-1.3-1.3-1.9-1.9-3.2-3.1c0.3,1.5,0.4,2.3,0.7,3.9
						c-1.6,0.5-2.4,0.8-4.1,1.3c1.8,0.4,2.7,0.6,4.4,1.1c0.2,1.6,0.4,2.4,0.6,4c0.9-1.3,1.3-2,2.1-3.3c1.7,0.5,2.6,0.7,4.3,1.2
						c-1.2-1.3-1.8-1.9-3-3.2C-100,396.4-99.6,395.8-98.7,394.5L-98.7,394.5z"/>
				</g>
			</g>
			<g>
				<g>
					<path class="st0" d="M-83,413.7c-1.5,0.5-2.3,0.7-3.8,1.2c-1-1.4-1.5-2.2-2.6-3.6c0.1,1.7,0.1,2.6,0.2,4.3
						c-1.5,0.5-2.3,0.7-3.9,1.2c1.6,0.6,2.4,0.9,4,1.5c0,1.7,0,2.6,0.1,4.4c0.9-1.4,1.4-2.1,2.3-3.4c1.5,0.6,2.3,0.9,3.8,1.6
						c-0.9-1.5-1.4-2.2-2.4-3.7C-84.4,415.7-83.9,415-83,413.7L-83,413.7z"/>
				</g>
			</g>
			<g>
				<g>
					<path class="st0" d="M-70.4,435.2c-1.5,0.4-2.2,0.7-3.7,1.1c-0.8-1.6-1.2-2.4-2.1-4c-0.1,1.9-0.1,2.8-0.2,4.6
						c-1.5,0.4-2.2,0.6-3.7,1.1c1.4,0.7,2.1,1,3.5,1.8c-0.1,1.9-0.2,2.8-0.3,4.7c1-1.4,1.5-2.1,2.5-3.6c1.4,0.7,2.1,1.1,3.4,1.9
						c-0.8-1.6-1.1-2.4-1.9-4C-71.9,437.3-71.4,436.6-70.4,435.2L-70.4,435.2z"/>
				</g>
			</g>
			<g>
				<g>
					<path class="st0" d="M-114.3,406.1c-1.6,0.5-2.4,0.8-4,1.4c-1.3-1.3-1.9-1.9-3.2-3.1c0.3,1.6,0.4,2.4,0.7,3.9
						c-1.6,0.5-2.4,0.8-4,1.3c1.8,0.4,2.7,0.6,4.4,1.1c0.2,1.6,0.4,2.4,0.6,4c0.9-1.3,1.3-2,2.1-3.3c1.7,0.5,2.6,0.7,4.3,1.2
						c-1.2-1.3-1.8-2-3-3.2C-115.6,408.1-115.1,407.4-114.3,406.1L-114.3,406.1z"/>
				</g>
			</g>
			<g>
				<g>
					<path class="st0" d="M-98.6,425.3c-1.5,0.5-2.3,0.7-3.8,1.2c-1-1.4-1.5-2.2-2.6-3.6c0.1,1.7,0.1,2.6,0.2,4.3
						c-1.5,0.5-2.3,0.7-3.8,1.2c1.6,0.6,2.4,0.9,3.9,1.5c0,1.7,0,2.6,0.1,4.3c0.9-1.4,1.4-2.1,2.3-3.4c1.5,0.6,2.3,0.9,3.8,1.6
						c-0.9-1.5-1.4-2.2-2.4-3.7C-99.9,427.4-99.5,426.7-98.6,425.3L-98.6,425.3z"/>
				</g>
			</g>
			<g>
				<g>
					<path class="st0" d="M-113.8,421.2c-1.6,0.5-2.3,0.7-3.9,1.3c-1.1-1.4-1.7-2-2.8-3.3c0.2,1.6,0.3,2.5,0.4,4.1
						c-1.6,0.5-2.3,0.8-3.9,1.3c1.7,0.5,2.5,0.8,4.2,1.3c0.1,1.7,0.2,2.5,0.3,4.2c0.9-1.3,1.3-2,2.3-3.4c1.6,0.6,2.4,0.8,4,1.4
						c-1.1-1.4-1.6-2.1-2.7-3.4C-115.2,423.2-114.7,422.6-113.8,421.2L-113.8,421.2z"/>
				</g>
			</g>
			<g>
				<g>
					<path class="st0" d="M-115.8,391.7c-1.6,0.6-2.5,0.9-4.1,1.4c-1.4-1.1-2.1-1.7-3.6-2.8c0.4,1.5,0.6,2.2,1,3.7
						c-1.7,0.6-2.5,0.8-4.2,1.4c1.9,0.3,2.9,0.5,4.7,0.9c0.3,1.5,0.5,2.2,0.8,3.8c0.8-1.3,1.2-1.9,2.1-3.2c1.9,0.4,2.8,0.6,4.6,1
						c-1.3-1.2-2-1.8-3.3-2.9C-117,393.7-116.6,393-115.8,391.7L-115.8,391.7z"/>
				</g>
			</g>
			<g>
				<g>
					<path class="st0" d="M-98.2,409.6c-1.6,0.5-2.4,0.8-3.9,1.3c-1.1-1.3-1.7-2-2.9-3.3c0.2,1.6,0.3,2.5,0.4,4.1
						c-1.6,0.5-2.3,0.7-3.9,1.3c1.7,0.5,2.5,0.8,4.2,1.3c0.1,1.7,0.2,2.5,0.3,4.2c0.9-1.4,1.3-2,2.3-3.4c1.6,0.5,2.4,0.8,4,1.4
						c-1-1.4-1.6-2.1-2.7-3.4C-99.6,411.6-99.1,410.9-98.2,409.6L-98.2,409.6z"/>
				</g>
			</g>
			<g>
				<g>
					<path class="st0" d="M-84.2,430c-1.5,0.5-2.2,0.7-3.8,1.1c-0.9-1.5-1.3-2.2-2.3-3.7c0,1.8,0,2.7,0,4.5
						c-1.5,0.5-2.3,0.7-3.8,1.1c1.5,0.6,2.2,1,3.7,1.6c-0.1,1.8-0.1,2.7-0.2,4.5c1-1.4,1.4-2.1,2.4-3.5c1.4,0.7,2.2,1,3.6,1.7
						c-0.8-1.6-1.3-2.3-2.1-3.9C-85.6,432.1-85.1,431.4-84.2,430L-84.2,430z"/>
				</g>
			</g>
			<g>
				<g>
					<path class="st0" d="M-100.2,380.1c-1.7,0.6-2.5,0.9-4.1,1.4c-1.4-1.1-2.1-1.7-3.6-2.8c0.4,1.5,0.6,2.2,1,3.7
						c-1.7,0.6-2.5,0.8-4.2,1.4c1.9,0.3,2.9,0.5,4.7,0.8c0.4,1.5,0.5,2.3,0.8,3.8c0.8-1.3,1.3-1.9,2.1-3.2c1.9,0.4,2.8,0.6,4.6,1
						c-1.3-1.2-2-1.8-3.4-3C-101.4,382-101,381.3-100.2,380.1L-100.2,380.1z"/>
				</g>
			</g>
			<g>
				<g>
					<path class="st0" d="M-82.6,397.9c-1.6,0.5-2.4,0.7-3.9,1.3c-1.1-1.4-1.7-2-2.9-3.3c0.2,1.6,0.3,2.5,0.4,4.1
						c-1.6,0.5-2.4,0.8-3.9,1.3c1.7,0.5,2.5,0.8,4.2,1.3c0.1,1.7,0.2,2.5,0.3,4.2c0.9-1.4,1.4-2,2.2-3.4c1.6,0.5,2.4,0.8,4,1.4
						c-1.1-1.4-1.6-2.1-2.7-3.4C-84,399.9-83.5,399.2-82.6,397.9L-82.6,397.9z"/>
				</g>
			</g>
			<g>
				<g>
					<path class="st0" d="M-68.6,418.4c-1.5,0.4-2.3,0.7-3.8,1.1c-0.9-1.5-1.4-2.2-2.3-3.7c0,1.8,0,2.7-0.1,4.5
						c-1.5,0.4-2.3,0.7-3.8,1.1c1.5,0.6,2.2,1,3.7,1.6c0,1.8-0.1,2.7-0.1,4.5c1-1.4,1.5-2.1,2.4-3.5c1.5,0.7,2.2,1,3.6,1.7
						c-0.8-1.6-1.3-2.3-2.1-3.9C-70,420.4-69.5,419.8-68.6,418.4L-68.6,418.4z"/>
				</g>
			</g>
		</g>
	</g>
</g>
<g>
	<path class="st0" d="M-87.6,449c-28.9,0-52.4-23.5-52.4-52.4s23.5-52.4,52.4-52.4s52.4,23.5,52.4,52.4S-58.7,449-87.6,449z
		 M-87.6,346.2c-27.8,0-50.4,22.6-50.4,50.4c0,27.8,22.6,50.4,50.4,50.4s50.4-22.6,50.4-50.4C-37.2,368.8-59.8,346.2-87.6,346.2z"/>
</g>
</svg>
