<?xml version="1.0" encoding="utf-8"?>
<!-- Generator: Adobe Illustrator 19.0.0, SVG Export Plug-In . SVG Version: 6.00 Build 0)  -->
<svg version="1.1" id="Слой_1" xmlns="http://www.w3.org/2000/svg" xmlns:xlink="http://www.w3.org/1999/xlink" x="0px" y="0px"
	 width="100px" height="299.6px" viewBox="0 0 100 299.6" style="enable-background:new 0 0 100 299.6;" xml:space="preserve">
<style type="text/css">
	.st0{fill:#FF0000;}
	.st1{fill:#FFFFFF;}
</style>
<g>
	<rect y="199.6" class="st0" width="100" height="100"/>
	<g>
		<path class="st1" d="M80.8,226l-61.3,22.2c-1.1,0.4-1.3,1.9-0.3,2.6l9.2,6.3L70,235.1l-35.2,26.3v10.7c0,0.7,0.8,1.2,1.4,0.8
			l7.8-5.1l7.6,5.2c0.7,0.5,1.7,0.3,2.1-0.5l27.7-45.7C81.6,226.3,81.3,225.9,80.8,226z"/>
	</g>
</g>
<rect class="st0" width="100" height="100"/>
<g>
	<g>
		<path class="st1" d="M77.8,70.2L65.6,58.1l-0.9,0.9l-1.3-1.3c6.9-9.3,6.2-22.4-2.2-30.8c-9.2-9.2-24.2-9.2-33.4,0
			s-9.2,24.2,0,33.4c8.4,8.4,21.6,9.2,30.8,2.2l1.3,1.3l-0.9,0.9l12.2,12.2c1.8,1.8,4.8,1.8,6.6,0C79.6,75,79.6,72,77.8,70.2z
			 M56,55c-6.4,6.4-16.8,6.4-23.2,0s-6.4-16.8,0-23.2s16.8-6.4,23.2,0S62.4,48.7,56,55z"/>
		<path class="st1" d="M39.7,42.4c0.2,1.6,1.5,3.6,3.4,4.3c0.8,0.3,1.7,0.3,2.5,0c2-0.7,3.2-2.7,3.4-4.3c0.3,0,0.6-0.4,1-1.7
			c0.5-1.8,0-2.1-0.5-2c0.1-0.3,0.2-0.5,0.2-0.7c0.8-4.7-1.5-4.8-1.5-4.8s-0.4-0.7-1.4-1.3c-0.7-0.4-1.6-0.7-2.9-0.6
			c-0.4,0-0.8,0.1-1.1,0.2l0,0c-0.4,0.2-0.9,0.4-1.2,0.6c-0.5,0.3-0.9,0.7-1.3,1.1c-0.6,0.6-1.2,1.4-1.4,2.4c-0.2,0.8-0.2,1.5,0,2.4
			l0,0c0,0.2,0.1,0.5,0.2,0.7c-0.5,0-1,0.2-0.5,2C39.1,42,39.5,42.4,39.7,42.4z"/>
		<path class="st1" d="M52.8,48.8c-2.7-1-4.4-2.1-4.4-2.1l-2.1,6.7L46,54.2l-0.9-2.7c2.2-3-0.2-3.2-0.6-3.2l0,0c0,0,0,0,0,0
			c0,0,0,0,0,0c0,0,0,0,0,0c0,0,0,0,0,0l0,0c-0.4,0-2.7,0.1-0.6,3.2l-0.9,2.7l-0.3-0.9l-2.1-6.7c0,0-1.6,1.1-4.4,2.1
			c-1.5,0.5-2.2,1.4-2.5,2.7c0.4,0.5,0.8,1,1.3,1.5c5.3,5.3,13.8,5.3,19.1,0c0.5-0.5,0.9-1,1.3-1.5C55,50.2,54.2,49.3,52.8,48.8z"/>
	</g>
</g>
<g>
	<rect y="100" class="st0" width="100" height="100"/>
	<g>
		<path class="st1" d="M79.2,153.4l-14.5-7.3v-15.2l0,0l0,0L50,123.6l-14.6,7.4v15.2l-14.6,7.4v15.6l14.6,7.4l14.6-7.4v0l14.5,7.3
			l14.6-7.4V153.4L79.2,153.4L79.2,153.4z M50,125.9l10,5l-10,5l-10-5L50,125.9z M35.4,158.5l-10-5l10-5l10,5L35.4,158.5z
			 M64.6,158.5l-10-5l10-5l10,5L64.6,158.5z"/>
	</g>
</g>
</svg>
